<svg width="73" height="17" viewBox="0 0 73 17" fill="none" xmlns="http://www.w3.org/2000/svg">
<path d="M17 8.5C17 13.1944 13.1944 17 8.5 17C3.80558 17 0 13.1944 0 8.5C0 3.80558 3.80558 0 8.5 0C13.1944 0 17 3.80558 17 8.5Z" fill="#D9D9D9"/>
<path d="M45 8.5C45 13.1944 41.1944 17 36.5 17C31.8056 17 28 13.1944 28 8.5C28 3.80558 31.8056 0 36.5 0C41.1944 0 45 3.80558 45 8.5Z" fill="#D9D9D9"/>
<path d="M73 8.5C73 13.1944 69.1944 17 64.5 17C59.8056 17 56 13.1944 56 8.5C56 3.80558 59.8056 0 64.5 0C69.1944 0 73 3.80558 73 8.5Z" fill="#D9D9D9"/>
</svg>
